<svg width="32" height="33" viewBox="0 0 32 33" fill="none" xmlns="http://www.w3.org/2000/svg">
<g clip-path="url(#clip0_2448_1841)">
<g clip-path="url(#clip1_2448_1841)">
<g clip-path="url(#clip2_2448_1841)">
<g clip-path="url(#clip3_2448_1841)">
<path d="M4.89504 4.12939C4.89417 4.12939 4.8932 4.12939 4.89234 4.12939C4.58969 4.12939 4.30503 4.24737 4.09008 4.46179C3.87276 4.67857 3.75305 4.96722 3.75305 5.2745V22.4452C3.75305 23.0749 4.26732 23.5884 4.89956 23.59C7.56494 23.5963 12.0305 24.1519 15.1112 27.3757V9.40607C15.1112 9.19263 15.0566 8.99212 14.9537 8.82619C12.4253 4.75431 7.56645 4.13564 4.89504 4.12939Z" fill="#E74040"/>
<path d="M28.2471 22.4452V5.27438C28.2471 4.96709 28.1274 4.67845 27.91 4.46166C27.6951 4.24725 27.4102 4.12927 27.1079 4.12927C27.1069 4.12927 27.1059 4.12927 27.1051 4.12927C24.4338 4.13563 19.5749 4.7543 17.0464 8.82618C16.9435 8.9921 16.8891 9.19262 16.8891 9.40606V27.3756C19.9697 24.1518 24.4353 23.5962 27.1007 23.5899C27.7328 23.5882 28.2471 23.0747 28.2471 22.4452Z" fill="#E74040"/>
<path d="M30.8551 8.08923H30.0248V22.4452C30.0248 24.0529 28.715 25.3638 27.1049 25.3678C24.8441 25.3732 21.1163 25.8152 18.4763 28.3139C23.0423 27.196 27.8556 27.9227 30.5988 28.5479C30.9413 28.6259 31.2953 28.5453 31.5697 28.3266C31.8431 28.1084 32 27.7822 32 27.4322V9.23413C32.0001 8.60285 31.4864 8.08923 30.8551 8.08923Z" fill="#E74040"/>
<path d="M1.97517 22.4452V8.08923H1.14489C0.513726 8.08923 0 8.60285 0 9.23413V27.4318C0 27.782 0.156876 28.108 0.430331 28.3262C0.704541 28.5448 1.05816 28.6258 1.40122 28.5475C4.14439 27.9223 8.95788 27.1957 13.5237 28.3136C10.8837 25.815 7.15596 25.3731 4.89515 25.3677C3.28513 25.3638 1.97517 24.0529 1.97517 22.4452Z" fill="#E74040"/>
</g>
</g>
</g>
</g>
<defs>
<clipPath id="clip0_2448_1841">
<rect width="32" height="32" fill="white" transform="translate(0 0.353027)"/>
</clipPath>
<clipPath id="clip1_2448_1841">
<rect width="32" height="24.4476" fill="white" transform="translate(0 4.12927)"/>
</clipPath>
<clipPath id="clip2_2448_1841">
<rect width="32" height="24.4476" fill="white" transform="translate(0 4.12927)"/>
</clipPath>
<clipPath id="clip3_2448_1841">
<rect width="32" height="24.4476" fill="white" transform="translate(0 4.12927)"/>
</clipPath>
</defs>
</svg>
