<svg width="32" height="33" viewBox="0 0 32 33" fill="none" xmlns="http://www.w3.org/2000/svg">
<g clip-path="url(#clip0_2448_1830)">
<g clip-path="url(#clip1_2448_1830)">
<path d="M1.7143 20.3531C1.7143 20.6686 1.97016 20.9245 2.28573 20.9245H29.7143C30.0299 20.9245 30.2857 20.6686 30.2857 20.3531V2.63879H1.7143V20.3531Z" fill="#E74040"/>
<path d="M31.4286 0.353027H0.571429C0.255859 0.353027 0 0.608887 0 0.924456C0 1.24003 0.255859 1.49588 0.571429 1.49588H31.4286C31.7441 1.49588 32 1.24003 32 0.924456C32 0.608887 31.7441 0.353027 31.4286 0.353027Z" fill="#E74040"/>
<path d="M20.5714 30.0673H16.5714V23.2101H17.1429C17.4584 23.2101 17.7143 22.9543 17.7143 22.6387V22.0673H14.2857V22.6387C14.2857 22.9543 14.5416 23.2101 14.8572 23.2101H15.4286V30.0673H11.4286C10.4819 30.0673 9.7143 30.8348 9.7143 31.7815V32.353H22.2857V31.7815C22.2857 30.8348 21.5182 30.0673 20.5714 30.0673Z" fill="#E74040"/>
</g>
</g>
<defs>
<clipPath id="clip0_2448_1830">
<rect width="32" height="32" fill="white" transform="translate(0 0.353027)"/>
</clipPath>
<clipPath id="clip1_2448_1830">
<rect width="32" height="32" fill="white" transform="translate(0 0.353027)"/>
</clipPath>
</defs>
</svg>
